<svg id="Component_4_3" data-name="Component 4 – 3" xmlns="http://www.w3.org/2000/svg" xmlns:xlink="http://www.w3.org/1999/xlink" width="522.237" height="125.52" viewBox="0 0 522.237 125.52">
  <defs>
    <clipPath id="clip-path">
      <rect id="Rectangle_4" data-name="Rectangle 4" width="522.237" height="72.556"/>
    </clipPath>
    <clipPath id="clip-path-2">
      <rect id="Rectangle_6" data-name="Rectangle 6" width="392.156" height="34.336"/>
    </clipPath>
    <clipPath id="clip-path-3">
      <rect id="Rectangle_3" data-name="Rectangle 3" width="21.362" height="96.387" fill="#000"/>
    </clipPath>
  </defs>
  <g id="Group_6" data-name="Group 6" transform="translate(0 9.297)">
    <g id="Group_5" data-name="Group 5" transform="translate(0 0)" clip-path="url(#clip-path)">
      <path id="Path_5" data-name="Path 5" d="M428.007,61.594l-2.429,2.718v8.243h9.765Zm-91.573-2.234-5.952,13.195H340.9ZM113.44,72.556l-10.175-23.28v23.28ZM127.33,48.55,116.46,72.556h10.87ZM522.237,72.556V0H0V72.556H98.109V36.11h6.165l11.558,26.573L127.863,36.11h5.572V72.556h15.2c-4.049-2.277-6.489-6.8-6.489-13.5,0-9.3,6.579-14.495,13.573-14.495,7.409,0,12.092,5.013,12.269,13.769v1.027l-.71.482H148.785v.664c0,6.824,3.261,9.965,6.995,9.965,4.208,0,6.756-2.356,7.942-6.643l3.971.785-.474,1.63a10.809,10.809,0,0,1-5.007,6.311h18.55c-4.049-2.277-6.489-6.8-6.489-13.5,0-9.3,6.579-14.495,13.573-14.495,7.409,0,12.092,5.013,12.269,13.769v1.027l-.71.482H180.91v.664c0,6.824,3.261,9.965,6.995,9.965,4.208,0,6.756-2.356,7.942-6.643l3.971.785-.474,1.63a10.808,10.808,0,0,1-5.007,6.311h16.571a9.818,9.818,0,0,1-4.273-5.163l-.712-2.054,4.15-1.026c1.541,4.288,4.5,6.341,8.238,6.341,3.5,0,5.453-1.57,5.453-4.288,0-6.341-16.715-2.114-16.715-13.528,0-5.133,4.387-8.274,10.076-8.274,6.046,0,9.721,2.778,11.143,6.643l.712,1.993-4.09.845a7.679,7.679,0,0,0-7.765-5.858c-2.963,0-4.86,1.329-4.86,3.623,0,6.584,16.952,2.054,16.952,13.468a8.244,8.244,0,0,1-4.166,7.277h15.711c-1.927-1.581-2.832-4.227-2.832-7.941V50.181h-5.1V46.014h5.1V38.345l5.927-.785v8.455h8.475v4.167h-8.475V65.339c0,3.865,1.363,5.073,3.2,5.073,2.253,0,3.2-2.114,3.675-4.891l3.971.543-.3,1.268a9.118,9.118,0,0,1-2.934,5.224h13.452c-4.049-2.277-6.489-6.8-6.489-13.5,0-9.3,6.579-14.495,13.574-14.495,7.408,0,12.091,5.013,12.269,13.769v1.027l-.712.482H265.074v.664c0,6.824,3.26,9.965,6.993,9.965,4.208,0,6.757-2.356,7.942-6.643l3.971.785-.474,1.63a10.8,10.8,0,0,1-5.007,6.311h14.669V46.014l5.869-.785v3.262a6.729,6.729,0,0,1,5.749-3.262c4.15,0,7.112,1.993,7.112,6.582a12.474,12.474,0,0,1-.71,4.107H306.8V53.564c0-2.778-1.126-4.228-3.2-4.228-2.667,0-4.5,2.475-4.5,5.918v17.3h25.557l-9.14-26.542h6.4l6.639,20.171,5.809-13.105-2.371-7.066h6.163l6.223,19.808,6.935-19.808h5.157l-9.654,26.542h19.7c-4.049-2.277-6.488-6.8-6.488-13.5,0-9.3,6.579-14.495,13.573-14.495,7.409,0,12.092,5.013,12.269,13.769v1.027l-.712.482H366.663v.664c0,6.824,3.26,9.965,6.994,9.965,4.208,0,6.757-2.356,7.943-6.643l3.971.785-.474,1.63a10.813,10.813,0,0,1-5.007,6.311h14.669V46.014l5.867-.785v3.262a6.73,6.73,0,0,1,5.749-3.262c4.15,0,7.113,1.993,7.113,6.582a12.475,12.475,0,0,1-.712,4.107H408.39V53.564c0-2.778-1.127-4.228-3.2-4.228-2.668,0-4.505,2.475-4.505,5.918v17.3h18.967V31.822l5.927-1.026V58.213l10.965-12.2h5.867L432.1,57.187l10.3,15.369ZM155.72,48.128c-3.318,0-6.045,2.235-6.875,7.911h13.1c-.3-4.65-2.549-7.911-6.224-7.911m32.125,0c-3.318,0-6.045,2.235-6.875,7.911h13.1c-.3-4.65-2.549-7.911-6.224-7.911m84.164,0c-3.319,0-6.046,2.235-6.876,7.911h13.1c-.3-4.65-2.549-7.911-6.223-7.911m101.589,0c-3.319,0-6.046,2.235-6.875,7.911h13.1c-.3-4.65-2.548-7.911-6.223-7.911" transform="translate(0 0)"/>
    </g>
  </g>
  <g id="Group_8" data-name="Group 8" transform="translate(98.586 91.183)">
    <g id="Group_7" data-name="Group 7" transform="translate(0 0)" clip-path="url(#clip-path-2)">
      <path id="Path_6" data-name="Path 6" d="M379.3,16.914c.109-3.73,2.463-6.338,4.963-6.338,2.174,0,3.84,1.7,3.84,5.977v1.3c0,4.238-1.739,6.048-3.984,6.048-2.5,0-4.709-2.39-4.818-6.41Zm-3.622,17.422H379.3V23.869a6.27,6.27,0,0,0,5.144,2.21c4.382,0,7.714-3.405,7.714-8.874,0-5.759-2.753-8.947-7.388-8.947a6.724,6.724,0,0,0-5.506,2.9v-2.5l-3.587.471ZM359.992,23.8a2.323,2.323,0,0,1-2.534-2.536c0-1.666,1.159-2.5,3.621-3.115l2.789-.724v4.89a7.165,7.165,0,0,1-3.876,1.485m-6.3-2.245c0,3.259,2.137,4.528,5.07,4.528a8.743,8.743,0,0,0,5.107-1.775v1.775l3.622-.435V15.068c0-4.419-2.028-6.81-6.411-6.81-2.97,0-6.447,1.63-6.447,5.795v.29l2.427.435v-.543c0-2.245,1.3-3.658,3.405-3.658,2.245,0,3.4,1.666,3.4,4.057v.941l-3.694.87c-2.68.652-6.483,1.739-6.483,5.107m-21.044,4.093h3.621V14.851a3.888,3.888,0,0,1,3.8-4.13c2.281,0,3.4,1.7,3.4,4.13V25.644H347.1v-10.4c0-4.419-1.992-6.882-6.338-6.882a5.7,5.7,0,0,0-4.492,2.137V0l-3.621.615Zm-21.479-8.692c0,5.759,3.332,9.127,8.295,9.127a6.642,6.642,0,0,0,6.627-4.818l.29-.977-2.427-.581c-.724,2.681-2.281,4.093-4.455,4.093s-4.129-1.775-4.129-6.012v-1.3c0-4.273,2.028-6.085,4.238-6.085,2.571,0,4.238,1.992,4.419,4.818l2.463-.435-.145-1.158c-.4-2.97-2.826-5.362-6.737-5.362a8.331,8.331,0,0,0-8.439,8.694m-18.8,5c.978,2.571,3.3,4.129,6.992,4.129,4.237,0,6.809-2.282,6.809-5.4,0-6.846-10.36-4.129-10.36-8.077,0-1.376,1.16-2.172,2.97-2.172a4.682,4.682,0,0,1,4.745,3.512l2.5-.506-.435-1.2c-.869-2.318-3.115-3.984-6.81-3.984-3.477,0-6.157,1.883-6.157,4.963,0,6.846,10.214,4.31,10.214,8.113,0,1.63-1.2,2.571-3.332,2.571-2.282,0-4.093-1.231-5.035-3.8l-2.534.616Zm-19.3-4.166V16.517c0-4.239,1.7-6.085,3.984-6.085,2.5,0,4.708,2.354,4.817,6.374v.29c0,3.911-2.427,6.664-4.963,6.664-2.137,0-3.839-1.7-3.839-5.977m-4.057-.688c0,5.759,2.789,8.983,7.425,8.983a6.727,6.727,0,0,0,5.433-2.826v2.826l3.585-.435V0l-3.585.579V10.5a6.184,6.184,0,0,0-5.143-2.245c-4.348,0-7.716,3.369-7.716,8.838m-21.225,8.548H251.4V14.851a3.893,3.893,0,0,1,3.839-4.13c2.245,0,3.405,1.7,3.405,4.13V25.644h3.585v-10.4c0-4.419-1.955-6.882-6.338-6.882a5.641,5.641,0,0,0-4.528,2.174V8.657l-3.585.471ZM232.1,23.8a2.323,2.323,0,0,1-2.536-2.536c0-1.666,1.158-2.5,3.622-3.115l2.789-.724v4.89A7.165,7.165,0,0,1,232.1,23.8m-6.3-2.245c0,3.259,2.137,4.528,5.071,4.528a8.747,8.747,0,0,0,5.107-1.775v1.775l3.621-.435V15.068c0-4.419-2.028-6.81-6.41-6.81-2.97,0-6.448,1.63-6.448,5.795v.29l2.427.435v-.543c0-2.245,1.3-3.658,3.405-3.658,2.245,0,3.405,1.666,3.405,4.057v.941l-3.7.87c-2.68.652-6.483,1.739-6.483,5.107m-10.4,4.093h3.623V0L215.4.615ZM184.831,21.95c.978,2.571,3.3,4.129,6.991,4.129,4.238,0,6.81-2.282,6.81-5.4,0-6.846-10.36-4.129-10.36-8.077,0-1.376,1.16-2.172,2.97-2.172a4.682,4.682,0,0,1,4.745,3.512l2.5-.506-.435-1.2c-.868-2.318-3.115-3.984-6.809-3.984-3.477,0-6.158,1.883-6.158,4.963,0,6.846,10.215,4.31,10.215,8.113,0,1.63-1.2,2.571-3.332,2.571-2.282,0-4.093-1.231-5.035-3.8l-2.536.616Zm-19.305-4.166V16.517c0-4.239,1.7-6.085,3.984-6.085,2.5,0,4.709,2.354,4.818,6.374v.29c0,3.911-2.427,6.664-4.963,6.664-2.137,0-3.84-1.7-3.84-5.977M161.47,17.1c0,5.759,2.789,8.983,7.425,8.983a6.731,6.731,0,0,0,5.433-2.826v2.826l3.585-.435V0l-3.585.579V10.5a6.189,6.189,0,0,0-5.144-2.245c-4.346,0-7.714,3.369-7.714,8.838m-21.225,8.548h3.621V14.851a3.894,3.894,0,0,1,3.84-4.13c2.245,0,3.405,1.7,3.405,4.13V25.644H154.7v-10.4c0-4.419-1.956-6.882-6.338-6.882a5.641,5.641,0,0,0-4.528,2.174V8.657l-3.585.471ZM124.562,23.8a2.323,2.323,0,0,1-2.536-2.536c0-1.666,1.158-2.5,3.621-3.115l2.79-.724v4.89a7.173,7.173,0,0,1-3.876,1.485m-6.3-2.245c0,3.259,2.137,4.528,5.07,4.528a8.751,8.751,0,0,0,5.108-1.775v1.775l3.621-.435V15.068c0-4.419-2.028-6.81-6.411-6.81-2.969,0-6.447,1.63-6.447,5.795v.29l2.427.435v-.543c0-2.245,1.3-3.658,3.405-3.658,2.245,0,3.405,1.666,3.405,4.057v.941l-3.7.87c-2.68.652-6.483,1.739-6.483,5.107m-10.4,4.093h3.623V0l-3.623.615Zm-16.661,0h3.623V14.669c0-2.065,1.123-3.55,2.753-3.55,1.267,0,1.955.87,1.955,2.536v1.413h2.681a7.383,7.383,0,0,0,.433-2.464c0-2.752-1.811-3.947-4.346-3.947a4.128,4.128,0,0,0-3.513,1.955V8.657L91.2,9.127ZM76.824,10.394c2.245,0,3.621,1.956,3.8,4.745h-8c.506-3.4,2.172-4.745,4.2-4.745m-8.295,6.557c0,6.012,3.332,9.127,8.331,9.127a7.077,7.077,0,0,0,6.991-4.818l.29-.977-2.427-.472c-.725,2.573-2.282,3.984-4.854,3.984-2.282,0-4.275-1.883-4.275-5.977v-.4h11.3l.435-.29v-.615c-.109-5.253-2.97-8.259-7.5-8.259-4.275,0-8.295,3.115-8.295,8.694m-19.161.832V16.517c0-4.239,1.7-6.085,3.984-6.085,2.5,0,4.709,2.354,4.818,6.374v.29c0,3.911-2.427,6.664-4.963,6.664-2.137,0-3.84-1.7-3.84-5.977M45.313,17.1c0,5.759,2.789,8.983,7.425,8.983a6.731,6.731,0,0,0,5.433-2.826v2.826l3.585-.435V0L58.171.579V10.5a6.188,6.188,0,0,0-5.144-2.245c-4.346,0-7.714,3.369-7.714,8.838m-12.931-6.7c2.245,0,3.623,1.956,3.8,4.745h-8c.508-3.4,2.174-4.745,4.2-4.745m-8.295,6.557c0,6.012,3.332,9.127,8.331,9.127a7.077,7.077,0,0,0,6.991-4.818l.29-.977-2.427-.472c-.724,2.573-2.281,3.984-4.854,3.984-2.281,0-4.273-1.883-4.273-5.977v-.4h11.3l.435-.29v-.615c-.109-5.253-2.97-8.259-7.5-8.259-4.275,0-8.295,3.115-8.295,8.694M0,25.644H3.115V9.888L14.886,25.644H17.35V3.186H14.234V18.944L2.644,3.186H0Z" transform="translate(0 0)"/>
    </g>
  </g>
  <g id="Group_4" data-name="Group 4" transform="matrix(0.809, -0.588, 0.588, 0.809, 419.936, 14.556)">
    <g id="Group_3" data-name="Group 3" transform="translate(2.794 -0.442)" clip-path="url(#clip-path-3)">
      <path id="Path_4" data-name="Path 4" d="M10.553,59.8C8.6,60.946,6.7,60.366,4.8,59.288a2.047,2.047,0,0,0-.062.252A49.765,49.765,0,0,0,4.34,68.7a.883.883,0,0,0,.151.433A4.275,4.275,0,0,0,7.849,71.1a6.008,6.008,0,0,0,2.651-.637A1.8,1.8,0,0,0,11.729,68.7c.006-.181.018-.365.016-.548A53.348,53.348,0,0,0,10.553,59.8M11.7,93.149A26.6,26.6,0,0,1,1.749,82.362,15.75,15.75,0,0,1,.056,76.9a10.3,10.3,0,0,1,3.217-8.879.777.777,0,0,0,.246-.52,38.792,38.792,0,0,1,.516-8.139,49.748,49.748,0,0,0,.409-7.65c.157-3.85.2-7.712.28-11.57.073-3.371.131-6.743.205-10.112.075-3.294.171-6.584.242-9.876.073-3.264.123-6.528.189-9.791.058-2.851.113-5.7.2-8.552A2.271,2.271,0,0,1,6.489.181c.429-.367.969-.143,1.388.381a5.017,5.017,0,0,1,.9,3.211c.133,3.784.306,7.567.461,11.351q.251,6.2.5,12.408.287,6.96.584,13.924c.226,5.468.479,10.938.651,16.406a29.943,29.943,0,0,0,.566,3.228c.286,2.051.61,4.1.935,6.149a.716.716,0,0,0,.266.447A10.281,10.281,0,0,1,17.3,74.271a18.9,18.9,0,0,1-.157,8.8,17.479,17.479,0,0,0-.355,3.064,8.307,8.307,0,0,0,2,5.293c.56.729,1.136,1.449,1.676,2.19a7.246,7.246,0,0,1,.735,1.233c.4.9-.01,1.6-.989,1.529a14.2,14.2,0,0,1-2.877-.544,24.162,24.162,0,0,1-5.641-2.69" transform="translate(0 -0.001)" fill="#fff"/>
    </g>
  </g>
  <line id="Line_18" data-name="Line 18" x2="428" transform="translate(79.086 82.67)" fill="#000" stroke="#fff" stroke-width="3"/>
</svg>
