<svg xmlns="http://www.w3.org/2000/svg" xmlns:xlink="http://www.w3.org/1999/xlink" width="72.276" height="38.005" viewBox="0 0 72.276 38.005">
  <defs>
    <clipPath id="clip-path">
      <rect id="Rectangle_3" data-name="Rectangle 3" width="15.74" height="71.02" fill="#fff"/>
    </clipPath>
  </defs>
  <g id="Group_4" data-name="Group 4" transform="translate(0 14.883) rotate(-71)">
    <g id="Group_3" data-name="Group 3" transform="translate(0 0)" clip-path="url(#clip-path)">
      <path id="Path_4" data-name="Path 4" d="M7.776,44.062c-1.441.845-2.84.417-4.241-.377a1.508,1.508,0,0,0-.046.186A36.668,36.668,0,0,0,3.2,50.62a.651.651,0,0,0,.111.319,3.15,3.15,0,0,0,2.475,1.446,4.427,4.427,0,0,0,1.954-.469,1.324,1.324,0,0,0,.906-1.3c0-.134.013-.269.012-.4a39.309,39.309,0,0,0-.879-6.152m.846,24.572a19.6,19.6,0,0,1-7.333-7.948A11.6,11.6,0,0,1,.042,56.665a7.589,7.589,0,0,1,2.371-6.542.572.572,0,0,0,.181-.383,28.583,28.583,0,0,1,.38-6,36.655,36.655,0,0,0,.3-5.637c.116-2.837.145-5.683.206-8.525.053-2.484.1-4.969.151-7.451.055-2.427.126-4.851.178-7.277.053-2.4.091-4.81.14-7.215.043-2.1.083-4.2.144-6.3a1.673,1.673,0,0,1,.687-1.2C5.1-.137,5.5.028,5.8.414A3.7,3.7,0,0,1,6.468,2.78c.1,2.788.226,5.576.34,8.364q.185,4.571.368,9.143.212,5.128.431,10.259c.166,4.029.353,8.059.48,12.088A22.063,22.063,0,0,0,8.5,45.012c.211,1.511.45,3.021.689,4.531a.527.527,0,0,0,.2.33,7.575,7.575,0,0,1,3.362,4.853,13.923,13.923,0,0,1-.116,6.486,12.879,12.879,0,0,0-.261,2.258,6.121,6.121,0,0,0,1.477,3.9c.413.537.837,1.067,1.235,1.614a5.339,5.339,0,0,1,.542.909c.3.661-.007,1.182-.729,1.127a10.466,10.466,0,0,1-2.12-.4,17.8,17.8,0,0,1-4.157-1.982" transform="translate(0 0)" fill="#fff"/>
    </g>
  </g>
</svg>
