<svg id="Group_2" data-name="Group 2" xmlns="http://www.w3.org/2000/svg" xmlns:xlink="http://www.w3.org/1999/xlink" width="186.599" height="107.631" viewBox="0 0 186.599 107.631">
  <defs>
    <clipPath id="clip-path">
      <rect id="Rectangle_2" data-name="Rectangle 2" width="186.599" height="107.631" fill="#000"/>
    </clipPath>
  </defs>
  <g id="Group_1" data-name="Group 1" transform="translate(0 0)" clip-path="url(#clip-path)">
    <path id="Path_1" data-name="Path 1" d="M64.8,70.029l-.152.034c0,1.06,0,2.12,0,3.18,0,.393-.016.758-.559.71-1.115-.1-2.236-.15-3.34-.32-1.426-.221-2.832-.578-4.258-.8-1.579-.25-3.179-.379-4.759-.631-3.4-.541-6.788-1.118-10.179-1.7-.329-.057-.839-.219-.894-.43a1.43,1.43,0,0,1,.307-1.042c1.916-2.567,3.82-5.144,5.809-7.653,2.739-3.458,5.551-6.857,8.323-10.288.525-.651,1.016-.625,1.588-.056a23.6,23.6,0,0,1,3.881,4.638,28.643,28.643,0,0,1,3.039,7.425c.584,2.265.808,4.622,1.191,6.939m14.625,6.479c-2.443-.278-4.993-.578-7.548-.847-.587-.062-.666-.4-.657-.873.026-1.272,0-2.547.072-3.817a29.431,29.431,0,0,0-1.306-9.4A39.968,39.968,0,0,0,67.209,54.9a34.74,34.74,0,0,0-6.893-9.27c-.843-.85-.8-1.04-.005-1.947,1.239-1.406,2.427-2.855,3.656-4.269,1.29-1.485,2.582-2.969,3.916-4.413.66-.715.915-.669,1.243.237.75,2.067,1.457,4.15,2.141,6.24,1.351,4.127,2.66,8.268,4.012,12.395,1.448,4.417,2.927,8.823,4.393,13.233.475,1.43.965,2.855,1.423,4.291.44,1.379.842,2.771,1.271,4.154.21.678.087,1.038-.734.968-.691-.059-1.391-.012-2.207-.012m7.958-6.818c-.6-1.621-1.229-3.208-1.787-4.819q-1.85-5.346-3.64-10.713c-1.226-3.694-2.412-7.4-3.61-11.106-1.237-3.824-2.458-7.653-3.709-11.472-.235-.716-.019-.9.689-.9,4.332.019,8.664.009,13,.009h34.534c1.334,0,2.012.609,1.993,1.884a1.912,1.912,0,0,1-.424,1.14q-5.764,6.594-11.575,13.145-3.365,3.81-6.736,7.615-6.672,7.545-13.351,15.087a2.871,2.871,0,0,1-.843.667c-.411.2-.714.076-.694-.459.034-.939.037-1.879.126-2.813a.849.849,0,0,1,.532-.564c1.271-.324,1.489-.665,1.121-2.067-1.329,0-2.686,0-4.043,0a9.162,9.162,0,0,0-1.269.043c-.818.119-1.038.751-1.11,1.45s.354.878.96.887a.594.594,0,0,1,.419.268,4.155,4.155,0,0,1-.578,2.717M36.212,101.06c-.006.1-.014.207-.02.311-2.1-.238-4.217-.35-6.284-.738a26.274,26.274,0,0,1-11.125-5.046,29.036,29.036,0,0,1-7.915-8.779,24.278,24.278,0,0,1-3.479-9.623c-.4-4.511-.6-9.037.856-13.486A27.4,27.4,0,0,1,13.727,53.51a29.863,29.863,0,0,1,7.06-6.069,25.868,25.868,0,0,1,12.174-3.957c3.934-.127,7.861-.2,11.66,1.113q2.857.985,5.729,1.934c.7.232.723.687.39,1.2-.595.909-1.206,1.81-1.869,2.67-1.789,2.326-3.675,4.58-5.4,6.955-1.736,2.395-3.257,4.946-4.994,7.341a12.627,12.627,0,0,1-4.291,3.977,5.842,5.842,0,0,0-1.472,1.195,3.089,3.089,0,0,0,1.291,4.908,8.91,8.91,0,0,0,2.6.29,32.649,32.649,0,0,1,8.075.991c2.236.509,4.448,1.124,6.678,1.658,1.851.442,3.706.878,5.574,1.24,1.837.355,3.69.631,5.542.905.706.1,1.206.3.875,1.14a32.524,32.524,0,0,1-1.727,4.184,48.234,48.234,0,0,1-3.881,6A22.47,22.47,0,0,1,49.9,97.794a54.34,54.34,0,0,1-5.073,2.144,18.959,18.959,0,0,1-4.081,1.08,37.348,37.348,0,0,1-4.538.041M151.367,43.22c0,.076.008.152.013.229a22,22,0,0,1,8.049.984A25.881,25.881,0,0,1,169.434,49.9c2.657,2.4,5.189,4.926,6.782,8.2.892,1.834,1.991,3.577,2.291,5.674.16,1.122.806,2.194.859,3.306.145,3.083.154,6.176.091,9.263a14.983,14.983,0,0,1-.6,3.837,42.822,42.822,0,0,1-1.629,4.113,23.915,23.915,0,0,1-4.217,6.713,26.922,26.922,0,0,1-10.422,7.657,42.944,42.944,0,0,1-7.39,2.3,25.156,25.156,0,0,1-6.252.153,29.153,29.153,0,0,1-5.7-.9,41.906,41.906,0,0,1-5.218-2.008,22.779,22.779,0,0,1-6.337-4.142,28.382,28.382,0,0,1-6.975-9.18,22.572,22.572,0,0,1-2.007-5.5,59.309,59.309,0,0,1-.675-8.214,19.769,19.769,0,0,1,1.825-9.437,59.888,59.888,0,0,1,3.261-5.62,33.678,33.678,0,0,1,2.608-3.593c.951-1.144,1.624-.99,2.272.307.944,1.888,1.861,3.794,2.917,5.618,2.744,4.733,6.64,8.44,10.789,11.913a2.691,2.691,0,0,1,.928,1.266c.6,2.6,2.24,3.808,4.845,3.473a3.45,3.45,0,0,0,2.685-2.819,3.224,3.224,0,0,0-2.062-3.649,17.956,17.956,0,0,1-3.142-1.752A36.537,36.537,0,0,1,139.956,56.2a29.82,29.82,0,0,1-3.188-7.572c-.186-.788-.074-1.34.723-1.7.549-.245,1.032-.642,1.585-.875a30.227,30.227,0,0,1,5.188-2.041,65.861,65.861,0,0,1,7.1-.8m-23.885-3.04c.52,1.261,1.019,2.29,1.344,3.372.1.318-.217.86-.49,1.169-.924,1.043-1.915,2.026-2.877,3.035a36.952,36.952,0,0,0-7.427,11,36.575,36.575,0,0,0-1.959,6.266c-.884,3.9-.61,7.762-.484,11.634a22,22,0,0,0,1.19,5.8,46.4,46.4,0,0,0,2.584,6.463,23.976,23.976,0,0,0,4.928,6.917,80.268,80.268,0,0,0,6.161,5.625,31.918,31.918,0,0,0,8.471,4.4,27.936,27.936,0,0,0,10.943,1.749c1.786-.072,3.581.044,5.363-.063a30.58,30.58,0,0,0,11.344-3.222A32.835,32.835,0,0,0,178.4,94.909a45,45,0,0,0,4.689-7.715,29.36,29.36,0,0,0,3.022-11.04c.082-1.087.277-2.163.4-3.247a9.378,9.378,0,0,0-.223-3.76c-.42-1.47-.443-3.047-.761-4.552a34.071,34.071,0,0,0-1.315-4.973,48.934,48.934,0,0,0-2.436-5.142,32.346,32.346,0,0,0-9.322-10.651,33.751,33.751,0,0,0-13.217-6.163,30.831,30.831,0,0,0-5.308-.6c-2.056-.1-4.122.014-6.182-.033-3.417-.078-6.547,1.037-9.659,2.238-.9.347-1.773.76-2.665,1.125a.892.892,0,0,1-1.289-.592c-.638-1.562-1.293-3.118-1.9-4.693-1.052-2.731-2.068-5.476-3.11-8.211A79.033,79.033,0,0,1,125.6,16.641a2.352,2.352,0,0,1-.023-.374c.753.422,1.478.771,2.143,1.21,2.482,1.635,5.253,1.43,8.006,1.272,1.555-.089,1.367-.214,1.916-1.645a17.266,17.266,0,0,0,.861-8.04,18.458,18.458,0,0,0-.46-2.5c-.28-1.174-1.358-1.27-2.239-1.364-2.727-.29-5.452-.331-7.931,1.159a1.221,1.221,0,0,1-1.735-.35c-1.626-1.756-3.321-3.448-4.965-5.189A2.426,2.426,0,0,0,119.249,0c-3.516.031-7.031.012-10.547.015-1.32,0-1.579.268-1.591,1.6-.02,2.21-.02,2.2,2.173,2.207,2.666.01,5.333.015,8,.065a4.885,4.885,0,0,1,3.46,1.58,1.7,1.7,0,0,1,.341,2.222,20.119,20.119,0,0,0-1.721,3.386,5.368,5.368,0,0,0-.03,2.818c.59,2.308,1.4,4.56,2.055,6.852a20.556,20.556,0,0,1,.538,2.93c.023.176-.236.474-.435.57a1.954,1.954,0,0,1-.8.069q-22.959.066-45.917.126a4.5,4.5,0,0,1-1.533-.081,3.133,3.133,0,0,1-1.388-.99c-.4-.539-.263-1.068.532-1.275,1.954-.51,3.9-1.054,5.845-1.595a10.838,10.838,0,0,0,5.944-3.446c.611-.765.582-1.119-.357-1.336-1.846-.427-3.718-.748-5.59-1.054a14.715,14.715,0,0,0-2-.053q-9.809-.243-19.617-.485c-.484-.013-.97-.008-1.454.016-1.464.075-2.02,1.175-1.156,2.4a10.134,10.134,0,0,0,5.5,4.072c1.445.422,2.923.742,4.351,1.214a2.2,2.2,0,0,1,1.2.995,21.728,21.728,0,0,1,1.306,3.471,1.854,1.854,0,0,1-.269,1.439q-5.114,6.538-10.322,13c-.908,1.129-1.244,1.145-2.462.393a28.169,28.169,0,0,0-8.641-3.445,40.82,40.82,0,0,0-10-.962,31.9,31.9,0,0,0-7.421,1.058,35.981,35.981,0,0,0-18.4,11.65A34.181,34.181,0,0,0,2.7,59.827c-.65,1.744-1.529,3.506-1.369,5.484C.12,67.152.522,69.343.107,71.353c-.3,1.471.124,3.1.253,4.654a9.987,9.987,0,0,0,.258,1.424c.2.878.407,1.757.654,2.624a47.077,47.077,0,0,0,1.411,4.654c.781,1.951,1.7,3.851,2.666,5.72,2.143,4.162,5.636,7.185,9.056,10.2a27.142,27.142,0,0,0,9.57,5.188c1.576.521,3.167,1.011,4.779,1.4a13.012,13.012,0,0,0,2.965.341c3.212.018,6.427.038,9.634-.087a19.076,19.076,0,0,0,7.494-1.943c2.17-1.037,4.313-2.142,6.409-3.322a12.347,12.347,0,0,0,2.489-1.957c1.842-1.8,3.745-3.559,5.392-5.528a36.481,36.481,0,0,0,5.756-9.806c.386-.951.73-1.925,1.206-2.829a1.231,1.231,0,0,1,1.016-.47c2.368.294,4.716.8,7.089.967a6.809,6.809,0,0,1,4.588,2.507,2.775,2.775,0,0,1,.851,3.3,16.163,16.163,0,0,0-.488,2.572c-.254,1.228-.487,2.467-.853,3.663a1.517,1.517,0,0,1-.992.735c-1.027.262-1.566.668-1.459,1.392A1.485,1.485,0,0,0,81.416,98c1.571.078,3.148.068,4.722.081.622.005,1.089-.255,1.12-.928a1.157,1.157,0,0,0-.97-1.343c-1.045-.072-.883-.58-.705-1.268.608-2.344,1.215-4.691,1.75-7.053a1.669,1.669,0,0,1,1.261-1.256,5.977,5.977,0,0,0,3.2-2.828,5.436,5.436,0,0,0,.314-2.553,2.473,2.473,0,0,1,.64-1.808c4.528-5.124,9.03-10.271,13.553-15.4q3.423-3.883,6.89-7.727,6.6-7.371,13.223-14.731c.257-.287.561-.531,1.07-1.006" transform="translate(0 0)" fill="#fff"/>
    <path id="Path_2" data-name="Path 2" d="M36.464,111.6A35.755,35.755,0,1,1,72.218,75.845,35.8,35.8,0,0,1,36.464,111.6m0-65.453a29.7,29.7,0,1,0,29.7,29.7,29.732,29.732,0,0,0-29.7-29.7" transform="translate(-0.07 -3.969)" fill="#fff"/>
    <path id="Path_3" data-name="Path 3" d="M163.49,111.6a35.755,35.755,0,1,1,35.756-35.755A35.8,35.8,0,0,1,163.49,111.6m0-65.453a29.7,29.7,0,1,0,29.7,29.7,29.731,29.731,0,0,0-29.7-29.7" transform="translate(-12.647 -3.969)" fill="#fff"/>
  </g>
</svg>
